<svg xmlns="http://www.w3.org/2000/svg" width="1200" height="700" viewBox="0 0 1200 700" role="img" aria-labelledby="title desc">
  <title id="title">DS-ViRe full-corpus text baseline development measurement</title>
  <desc id="desc">Identity-assisted text and layout baseline ranked all registered development candidates for every development query.</desc>
  <rect width="1200" height="700" rx="28" fill="#090b10"/>
  <style>.title{font:700 34px Inter,Segoe UI,sans-serif;fill:#f4f7fb}.sub{font:18px Inter,Segoe UI,sans-serif;fill:#8d96a8}.metric{font:700 30px Inter,Segoe UI,sans-serif;fill:#f4f7fb}.label{font:14px Inter,Segoe UI,sans-serif;fill:#8d96a8}.row{font:700 17px Inter,Segoe UI,sans-serif;fill:#c8d0dc}.mono{font:16px ui-monospace,Consolas,monospace;fill:#f4f7fb}.foot{font:14px Inter,Segoe UI,sans-serif;fill:#697386}</style>
  <text x="64" y="68" class="title">Full registered-corpus ranking - development baseline</text>
  <text x="64" y="105" class="sub">Identity-assisted text/layout retrieval; ground-truth labels are never read by the scorer.</text>
  <rect x="64" y="134" width="1072" height="72" rx="16" fill="#2a1c13" stroke="#7c4a22"/>
  <text x="88" y="165" class="row">DEVELOPMENT ONLY - DETERMINISTIC-TEMPLATE QUERIES - NOT HELD-OUT ACCURACY</text>
  <text x="88" y="190" class="foot">Complete registered candidate universe, not every unannotated figure in each PDF.</text>
  <text x="72" y="253" class="label">NDCG@5 BY QUERY INTENT</text>
  <text x="74" y="316" class="row">PINOUT</text><rect x="240" y="292" width="700" height="28" rx="14" fill="#202631"/><rect x="240" y="292" width="640" height="28" rx="14" fill="#f2b84b"/><text x="974" y="315" class="mono">0.914</text><text x="74" y="394" class="row">TABLE</text><rect x="240" y="370" width="700" height="28" rx="14" fill="#202631"/><rect x="240" y="370" width="700" height="28" rx="14" fill="#16d6b3"/><text x="974" y="393" class="mono">1.000</text><text x="74" y="472" class="row">PACKAGE</text><rect x="240" y="448" width="700" height="28" rx="14" fill="#202631"/><rect x="240" y="448" width="683" height="28" rx="14" fill="#62a6ff"/><text x="974" y="471" class="mono">0.975</text>
  <rect x="58" y="540" width="1084" height="92" rx="18" fill="#121720" stroke="#293140"/>
  <text x="84" y="571" class="label">SCOPE</text><text x="84" y="606" class="metric">30 docs - 90 queries - 209 candidates</text>
  <text x="680" y="571" class="label">AGGREGATE / OPERATIONS</text><text x="680" y="606" class="metric">0.963 nDCG@5 - 2.71 s</text>
  <text x="64" y="670" class="foot">18,810 scored pairs - 100% coverage - ranking sha256 f94ef564773cd9be... - zero external cost</text>
</svg>
