<svg xmlns="http://www.w3.org/2000/svg" width="1600" height="900" viewBox="0 0 1600 900" role="img" aria-labelledby="title desc">
  <title id="title">DS-ViRe product workflow</title><desc id="desc">A synthetic datasheet page with selected pinout and table regions becomes grounded evidence and a deterministic eight-pin symbol.</desc>
  <defs><linearGradient id="bg" x1="0" y1="0" x2="1" y2="1"><stop stop-color="#070a0f"/><stop offset="1" stop-color="#0d1420"/></linearGradient><linearGradient id="paper" x1="0" y1="0" x2="0" y2="1"><stop stop-color="#f7f9fc"/><stop offset="1" stop-color="#e7edf5"/></linearGradient><filter id="shadow"><feDropShadow dx="0" dy="18" stdDeviation="22" flood-color="#000" flood-opacity=".38"/></filter></defs>
  <rect width="1600" height="900" rx="32" fill="url(#bg)"/>
  <style>.eyebrow{font:700 15px Inter,Segoe UI,sans-serif;letter-spacing:2px;fill:#18cdb2}.title{font:700 34px Inter,Segoe UI,sans-serif;fill:#f5f7fb}.muted{font:17px Inter,Segoe UI,sans-serif;fill:#8d9aad}.paper-title{font:700 20px Inter,Segoe UI,sans-serif;fill:#172235}.paper-text{font:13px Inter,Segoe UI,sans-serif;fill:#43516a}.tiny{font:11px Inter,Segoe UI,sans-serif;fill:#67758b}.chip{font:700 12px Inter,Segoe UI,sans-serif;letter-spacing:1px}.pin{stroke:#dfe7f2;stroke-width:3}.pin-name{font:700 17px Inter,Segoe UI,sans-serif;fill:#f5f7fb}.pin-number{font:12px ui-monospace,Consolas,monospace;fill:#7f8ca1}.symbol-title{font:700 22px Inter,Segoe UI,sans-serif;fill:#f5f7fb}.mono{font:13px ui-monospace,Consolas,monospace;fill:#8d9aad}</style>
  <text x="64" y="70" class="eyebrow">FIGURE-LEVEL RETRIEVAL</text><text x="64" y="112" class="title">Evidence you can trace. Symbols you can reproduce.</text><text x="64" y="146" class="muted">Synthetic crop · fixture-backed output · no vendor pixels</text>
  <g filter="url(#shadow)"><rect x="64" y="190" width="570" height="625" rx="22" fill="url(#paper)"/><rect x="96" y="222" width="506" height="46" rx="8" fill="#dbe4ef"/><text x="116" y="251" class="paper-title">TKX340 · 3 A Step-Down Converter</text><text x="96" y="302" class="paper-text">4  Pin configuration and functions</text>
  <rect x="96" y="326" width="506" height="210" rx="12" fill="#fff" stroke="#18cdb2" stroke-width="4"/><rect x="250" y="365" width="198" height="130" rx="12" fill="#edf2f8" stroke="#26364d" stroke-width="3"/><circle cx="274" cy="386" r="8" fill="none" stroke="#26364d" stroke-width="3"/><g stroke="#26364d" stroke-width="2"><line x1="218" y1="388" x2="250" y2="388"/><line x1="218" y1="416" x2="250" y2="416"/><line x1="218" y1="444" x2="250" y2="444"/><line x1="218" y1="472" x2="250" y2="472"/><line x1="448" y1="388" x2="480" y2="388"/><line x1="448" y1="416" x2="480" y2="416"/><line x1="448" y1="444" x2="480" y2="444"/><line x1="448" y1="472" x2="480" y2="472"/></g><text x="349" y="432" text-anchor="middle" class="paper-title">TKX340</text><text x="349" y="458" text-anchor="middle" class="tiny">TOP VIEW</text><g class="tiny"><text x="178" y="392">BOOT 1</text><text x="193" y="420">NC 2</text><text x="193" y="448">NC 3</text><text x="160" y="476">VSENSE 4</text><text x="486" y="392">8 PH</text><text x="486" y="420">7 VIN</text><text x="486" y="448">6 GND</text><text x="486" y="476">5 ENA</text></g>
  <rect x="96" y="562" width="506" height="203" rx="12" fill="#fff" stroke="#7067f0" stroke-width="4"/><rect x="96" y="562" width="506" height="38" rx="10" fill="#e9e8fb"/><text x="116" y="587" class="paper-text">PIN</text><text x="176" y="587" class="paper-text">NAME</text><text x="300" y="587" class="paper-text">FUNCTION</text><g class="paper-text"><text x="116" y="626">1</text><text x="176" y="626">BOOT</text><text x="300" y="626">Bootstrap supply</text><text x="116" y="656">4</text><text x="176" y="656">VSENSE</text><text x="300" y="656">Feedback input</text><text x="116" y="686">6</text><text x="176" y="686">GND</text><text x="300" y="686">Power ground</text><text x="116" y="716">7</text><text x="176" y="716">VIN</text><text x="300" y="716">Input supply</text><text x="116" y="746">8</text><text x="176" y="746">PH</text><text x="300" y="746">Switching node</text></g></g>
  <rect x="108" y="340" width="112" height="30" rx="15" fill="#092b29"/><text x="164" y="360" text-anchor="middle" class="chip" fill="#18cdb2">PINOUT CROP</text><rect x="474" y="576" width="112" height="30" rx="15" fill="#211e42"/><text x="530" y="596" text-anchor="middle" class="chip" fill="#9b94ff">PIN TABLE</text>
  <path d="M675 450 C735 450 748 450 804 450" fill="none" stroke="#18cdb2" stroke-width="4" stroke-linecap="round"/><path d="M789 437 L806 450 L789 463" fill="none" stroke="#18cdb2" stroke-width="4" stroke-linecap="round" stroke-linejoin="round"/><rect x="668" y="358" width="144" height="58" rx="14" fill="#101c28" stroke="#24364b"/><text x="740" y="383" text-anchor="middle" class="eyebrow" font-size="12">GROUNDED</text><text x="740" y="403" text-anchor="middle" class="mono">page · bbox · hash</text>
  <g filter="url(#shadow)"><rect x="855" y="190" width="681" height="625" rx="22" fill="#10151e" stroke="#253144"/><text x="895" y="236" class="eyebrow">DETERMINISTIC OUTPUT</text><text x="895" y="275" class="symbol-title">TPS5430DDAR · SO-PowerPAD-8</text><rect x="975" y="330" width="260" height="290" rx="18" fill="#161f2c" stroke="#687892" stroke-width="3"/><text x="1105" y="458" text-anchor="middle" class="symbol-title">TPS5430DDAR</text><text x="1105" y="488" text-anchor="middle" class="mono">3 A step-down converter</text><line x1="905" y1="372" x2="975" y2="372" class="pin"/><text x="892" y="378" text-anchor="end" class="pin-name">BOOT</text><text x="940" y="363" text-anchor="middle" class="pin-number">1</text><line x1="905" y1="434" x2="975" y2="434" class="pin"/><text x="892" y="440" text-anchor="end" class="pin-name">NC</text><text x="940" y="425" text-anchor="middle" class="pin-number">2</text><line x1="905" y1="496" x2="975" y2="496" class="pin"/><text x="892" y="502" text-anchor="end" class="pin-name">NC</text><text x="940" y="487" text-anchor="middle" class="pin-number">3</text><line x1="905" y1="558" x2="975" y2="558" class="pin"/><text x="892" y="564" text-anchor="end" class="pin-name">VSENSE</text><text x="940" y="549" text-anchor="middle" class="pin-number">4</text><line x1="1235" y1="558" x2="1305" y2="558" class="pin"/><text x="1318" y="564" class="pin-name">ENA</text><text x="1270" y="549" text-anchor="middle" class="pin-number">5</text><line x1="1235" y1="496" x2="1305" y2="496" class="pin"/><text x="1318" y="502" class="pin-name">GND</text><text x="1270" y="487" text-anchor="middle" class="pin-number">6</text><line x1="1235" y1="434" x2="1305" y2="434" class="pin"/><text x="1318" y="440" class="pin-name">VIN</text><text x="1270" y="425" text-anchor="middle" class="pin-number">7</text><line x1="1235" y1="372" x2="1305" y2="372" class="pin"/><text x="1318" y="378" class="pin-name">PH</text><text x="1270" y="363" text-anchor="middle" class="pin-number">8</text><text x="1105" y="692" text-anchor="middle" class="muted">8 pins · cited evidence · canonical geometry</text><text x="1105" y="724" text-anchor="middle" class="mono">validated by deterministic round-trip parsing</text></g>
</svg>
